<?xml version="1.0" encoding="utf-8" standalone="no"?>
<svg viewBox="0 0 167 42" version="1.1" xmlns="http://www.w3.org/2000/svg" xmlns:xlink="http://www.w3.org/1999/xlink" stroke-linecap="round" stroke-linejoin="round" fill-rule="evenodd" xml:space="preserve" >
<g stroke-linecap="round" stroke-linejoin="round">
<polygon fill="rgb(244,246,249)" stroke="rgb(217,223,232)" stroke-width="0.35" points="26.8071,39.8976 83.5,39.8976 83.689,39.8967 83.8779,39.8939 84.0668,39.8891 84.2557,39.8825 84.4445,39.874 84.6332,39.8636 84.8218,39.8514 85.0102,39.8372 85.1985,39.8212 85.3866,39.8032 85.5745,39.7834 85.7623,39.7617 85.9498,39.7382 86.137,39.7127 86.324,39.6854 86.5107,39.6563 86.6971,39.6252 86.8832,39.5923 87.069,39.5576 87.2544,39.5209 87.4394,39.4825 87.624,39.4422 87.8082,39.4 87.992,39.356 88.1753,39.3102 88.3582,39.2625 88.5406,39.213 88.7225,39.1617 88.9038,39.1085 89.0846,39.0536 89.2649,38.9969 89.4446,38.9383 89.6236,38.878 89.8021,38.8158 89.98,38.7519 90.1571,38.6862 90.3337,38.6188 90.5095,38.5496 90.6847,38.4786 90.8591,38.4059 91.0328,38.3314 91.2057,38.2552 91.3779,38.1773 91.5492,38.0977 91.7198,38.0163 91.8896,37.9333 92.0585,37.8485 92.2265,37.7621 92.3937,37.674 92.56,37.5842 92.7254,37.4928 92.8899,37.3997 93.0534,37.305 93.216,37.2087 93.3776,37.1107 93.5382,37.0111 93.6978,36.9099 93.8564,36.8072 94.0139,36.7028 94.1704,36.5969 94.3258,36.4894 94.4802,36.3804 94.6334,36.2698 94.7856,36.1577 94.9366,36.0441 95.0865,35.929 95.2352,35.8124 95.3827,35.6943 95.529,35.5747 95.6742,35.4537 95.8181,35.3312 95.9608,35.2074 96.1023,35.082 96.2424,34.9553 96.3814,34.8272 96.519,34.6977 96.6553,34.5668 96.7903,34.4346 96.924,34.301 97.0563,34.1661 97.1873,34.0299 97.3169,33.8924 97.4452,33.7536 97.572,33.6135 97.6974,33.4721 97.8214,33.3295 97.944,33.1857 98.0651,33.0407 98.1848,32.8944 98.303,32.747 98.4198,32.5983 98.535,32.4486 98.6487,32.2977 98.7609,32.1456 98.8716,31.9924 98.9808,31.8382 99.0884,31.6828 99.1944,31.5264 99.2989,31.3689 99.4018,31.2104 99.5031,31.0509 99.6028,30.8904 99.7009,30.7289 99.7974,30.5664 99.8922,30.4029 99.9855,30.2385 100.077,30.0732 100.167,29.907 100.255,29.7399 100.342,29.5719 100.427,29.4031 100.51,29.2334 100.591,29.0629 100.671,28.8915 100.749,28.7194 100.825,28.5466 100.9,28.3729 100.973,28.1986 101.044,28.0235 101.113,27.8477 101.181,27.6712 101.247,27.4941 101.311,27.3163 101.373,27.1379 101.434,26.9588 101.492,26.7792 101.549,26.599 101.604,26.4182 101.658,26.2369 101.709,26.0551 101.759,25.8728 101.806,25.6899 101.852,25.5066 101.897,25.3229 101.939,25.1387 101.979,24.9541 102.018,24.7691 102.055,24.5838 102.09,24.398 102.123,24.212 102.154,24.0256 102.183,23.8389 102.211,23.6519 102.236,23.4647 102.26,23.2772 102.282,23.0895 102.302,22.9016 102.32,22.7135 102.336,22.5252 102.35,22.3368 102.363,22.1482 102.373,21.9595 102.382,21.7707 102.389,21.5819 102.394,21.393 102.397,21.204 102.398,21.015 102.397,20.8261 102.394,20.6371 102.39,20.4482 102.383,20.2593 102.375,20.0705 102.365,19.8818 102.352,19.6933 102.338,19.5048 102.322,19.3165 102.305,19.1284 102.285,18.9404 102.264,18.7527 102.24,18.5651 102.215,18.3779 102.188,18.1909 102.159,18.0041 102.128,17.8177 102.095,17.6316 102.06,17.4458 102.024,17.2604 101.986,17.0753 101.945,16.8907 101.903,16.7064 101.86,16.5226 101.814,16.3392 101.766,16.1563 101.717,15.9739 101.666,15.792 101.613,15.6106 101.558,15.4297 101.501,15.2494 101.443,15.0697 101.383,14.8906 101.321,14.7121 101.257,14.5342 101.192,14.3569 101.124,14.1804 101.055,14.0045 100.984,13.8293 100.912,13.6548 100.837,13.481 100.761,13.308 100.684,13.1358 100.604,12.9644 100.523,12.7937 100.44,12.6239 100.355,12.4549 100.269,12.2868 100.181,12.1196 100.091,11.9532 100,11.7877 99.9072,11.6232 99.8126,11.4596 99.7164,11.297 99.6186,11.1353 99.5191,10.9746 99.4181,10.8149 99.3154,10.6562 99.2112,10.4986 99.1054,10.342 98.998,10.1865 98.8891,10.0321 98.7787,9.87872 98.6667,9.72649 98.5532,9.57539 98.4382,9.42543 98.3217,9.27663 98.2037,9.129 98.0843,8.98256 97.9634,8.83732 97.841,8.6933 97.7173,8.5505 97.5921,8.40896 97.4655,8.26867 97.3374,8.12965 97.208,7.99192 97.0773,7.8555 96.9452,7.72038 96.8117,7.5866 96.6769,7.45415 96.5408,7.32306 96.4034,7.19334 96.2647,7.065 96.1247,6.93805 95.9834,6.81251 95.8409,6.68839 95.6972,6.5657 95.5522,6.44445 95.4061,6.32466 95.2587,6.20633 95.1102,6.08949 94.9605,5.97413 94.8097,5.86028 94.6577,5.74794 94.5047,5.63713 94.3505,5.52785 94.1952,5.42012 94.0389,5.31395 93.8815,5.20935 93.7231,5.10632 93.5636,5.00489 93.4032,4.90505 93.2418,4.80683 93.0793,4.71022 92.916,4.61524 92.7516,4.5219 92.5864,4.43021 92.4203,4.34018 92.2532,4.25181 92.0853,4.16512 91.9165,4.08011 91.7469,3.99679 91.5765,3.91517 91.4052,3.83526 91.2332,3.75707 91.0604,3.6806 90.8868,3.60587 90.7125,3.53287 90.5375,3.46162 90.3617,3.39212 90.1853,3.32439 90.0082,3.25842 89.8305,3.19422 89.6521,3.13181 89.4731,3.07118 89.2935,3.01235 89.1134,2.95531 88.9327,2.90008 88.7514,2.84666 88.5696,2.79506 88.3873,2.74527 88.2045,2.69731 88.0212,2.65118 87.8375,2.60689 87.6534,2.56444 87.4688,2.52382 87.2839,2.48506 87.0985,2.44815 86.9128,2.41309 86.7268,2.37989 86.5404,2.34856 86.3538,2.31908 86.1668,2.29148 85.9796,2.26575 85.7922,2.24189 85.6045,2.21991 85.4166,2.1998 85.2285,2.18157 85.0402,2.16523 84.8518,2.15077 84.6632,2.1382 84.4745,2.12751 84.2858,2.11871 84.0969,2.11179 83.908,2.10677 83.7191,2.10363 83.5301,2.10239 83.5,2.10236 26.8071,2.10236 26.6181,2.10331 26.4292,2.10614 26.2402,2.11087 26.0514,2.11748 25.8626,2.12598 25.6739,2.13637 25.4853,2.14864 25.2969,2.1628 25.1086,2.17885 24.9205,2.19677 24.7325,2.21658 24.5448,2.23826 24.3573,2.26182 24.17,2.28726 23.9831,2.31456 23.7963,2.34374 23.6099,2.37478 23.4238,2.40768 23.2381,2.44244 23.0527,2.47906 22.8677,2.51753 22.6831,2.55784 22.4988,2.60001 22.3151,2.64401 22.1317,2.68984 21.9489,2.73751 21.7665,2.78701 21.5846,2.83832 21.4033,2.89145 21.2224,2.9464 21.0422,3.00315 20.8625,3.06169 20.6834,3.12203 20.505,3.18416 20.3271,3.24807 20.1499,3.31376 19.9734,3.38122 19.7976,3.45043 19.6224,3.5214 19.448,3.59412 19.2743,3.66858 19.1014,3.74478 18.9292,3.82269 18.7578,3.90233 18.5873,3.98368 18.4175,4.06672 18.2486,4.15147 18.0805,4.23789 17.9134,4.32599 17.7471,4.41576 17.5817,4.50719 17.4172,4.60027 17.2537,4.69498 17.0911,4.79133 16.9295,4.8893 16.7689,4.98888 16.6093,5.09006 16.4507,5.19283 16.2932,5.29718 16.1367,5.40311 15.9812,5.51059 15.8269,5.61962 15.6736,5.73019 15.5215,5.84228 15.3705,5.9559 15.2206,6.07101 15.0719,6.18762 14.9244,6.30571 14.778,6.42527 14.6329,6.54629 14.489,6.66875 14.3463,6.79265 14.2048,6.91796 14.0646,7.04469 13.9257,7.17281 13.7881,7.30231 13.6518,7.43318 13.5168,7.56541 13.3831,7.69899 13.2507,7.83389 13.1198,7.97011 12.9902,8.10763 12.8619,8.24644 12.7351,8.38653 12.6097,8.52788 12.4856,8.67047 12.3631,8.8143 12.2419,8.95935 12.1223,9.1056 12.0041,9.25304 11.8873,9.40166 11.7721,9.55143 11.6584,9.70235 11.5461,9.8544 11.4355,10.0076 11.3263,10.1618 11.2187,10.3172 11.1126,10.4736 11.0082,10.6311 10.9053,10.7896 10.804,10.9491 10.7043,11.1096 10.6062,11.2711 10.5097,11.4336 10.4148,11.5971 10.3216,11.7615 10.2301,11.9268 10.1402,12.093 10.0519,12.2601 9.96537,12.4281 9.88049,12.5969 9.79731,12.7666 9.71583,12.9371 9.63606,13.1085 9.558,13.2806 9.48167,13.4534 9.40707,13.6271 9.33421,13.8014 9.2631,13.9765 9.19375,14.1523 9.12615,14.3288 9.06032,14.5059 8.99627,14.6837 8.934,14.8621 8.87352,15.0412 8.81483,15.2208 8.75793,15.401 8.70285,15.5818 8.64957,15.7631 8.59811,15.9449 8.54847,16.1272 8.50066,16.3101 8.45467,16.4934 8.41053,16.6771 8.36822,16.8613 8.32775,17.0459 8.28914,17.2309 8.25237,17.4162 8.21746,17.602 8.18441,17.788 8.15322,17.9744 8.1239,18.1611 8.09645,18.3481 8.07086,18.5353 8.04715,18.7228 8.02532,18.9105 8.00536,19.0984 7.98729,19.2865 7.97109,19.4748 7.95678,19.6632 7.94436,19.8518 7.93382,20.0405 7.92517,20.2293 7.91841,20.4181 7.91353,20.607 7.91055,20.796 7.90945,20.985 7.91025,21.1739 7.91293,21.3629 7.9175,21.5518 7.92397,21.7407 7.93232,21.9295 7.94255,22.1182 7.95468,22.3067 7.96869,22.4952 7.98458,22.6835 8.00236,22.8716 8.02202,23.0596 8.04355,23.2473 8.06696,23.4349 8.09225,23.6221 8.1194,23.8091 8.14843,23.9959 8.17932,24.1823 8.21207,24.3684 8.24669,24.5542 8.28316,24.7396 8.32148,24.9247 8.36165,25.1093 8.40366,25.2936 8.44752,25.4774 8.49321,25.6608 8.54073,25.8437 8.59008,26.0261 8.64125,26.208 8.69424,26.3894 8.74904,26.5703 8.80564,26.7506 8.86405,26.9303 8.92425,27.1094 8.98623,27.2879 9.05,27.4658 9.11555,27.6431 9.18286,27.8196 9.25194,27.9955 9.32277,28.1707 9.39535,28.3452 9.46967,28.519 9.54573,28.692 9.62351,28.8642 9.70301,29.0356 9.78422,29.2063 9.86713,29.3761 9.95174,29.5451 10.038,29.7132 10.126,29.8804 10.2156,30.0468 10.3069,30.2123 10.3999,30.3768 10.4945,30.5404 10.5907,30.703 10.6885,30.8647 10.788,31.0254 10.889,31.1851 10.9917,31.3438 11.0959,31.5014 11.2017,31.658 11.3091,31.8135 11.418,31.9679 11.5284,32.1213 11.6404,32.2735 11.7539,32.4246 11.8689,32.5746 11.9854,32.7234 12.1033,32.871 12.2228,33.0174 12.3437,33.1627 12.466,33.3067 12.5898,33.4495 12.715,33.591 12.8416,33.7313 12.9696,33.8703 13.099,34.0081 13.2298,34.1445 13.3619,34.2796 13.4954,34.4134 13.6302,34.5458 13.7663,34.6769 13.9037,34.8067 14.0424,34.935 14.1824,35.0619 14.3237,35.1875 14.4662,35.3116 14.6099,35.4343 14.7548,35.5556 14.901,35.6753 15.0483,35.7937 15.1969,35.9105 15.3465,36.0259 15.4974,36.1397 15.6493,36.2521 15.8024,36.3629 15.9566,36.4721 16.1118,36.5799 16.2682,36.6861 16.4256,36.7907 16.584,36.8937 16.7434,36.9951 16.9039,37.0949 17.0653,37.1932 17.2277,37.2898 17.3911,37.3848 17.5554,37.4781 17.7207,37.5698 17.8868,37.6598 18.0539,37.7482 18.2218,37.8349 18.3906,37.9199 18.5602,38.0032 18.7306,38.0848 18.9019,38.1647 19.0739,38.2429 19.2467,38.3194 19.4203,38.3941 19.5946,38.4671 19.7696,38.5384 19.9454,38.6079 20.1218,38.6756 20.2989,38.7416 20.4766,38.8058 20.655,38.8682 20.834,38.9288 21.0135,38.9877 21.1937,39.0447 21.3744,39.0999 21.5557,39.1533 21.7375,39.2049 21.9198,39.2547 22.1026,39.3027 22.2858,39.3488 22.4695,39.3931 22.6537,39.4356 22.8383,39.4762 23.0232,39.5149 23.2085,39.5519 23.3942,39.5869 23.5803,39.6201 23.7666,39.6514 23.9533,39.6809 24.1402,39.7085 24.3275,39.7343 24.5149,39.7581 24.7026,39.7801 24.8905,39.8002 25.0786,39.8184 25.2669,39.8348 25.4553,39.8492 25.6439,39.8618 25.8325,39.8725 26.0213,39.8813 26.2102,39.8882 26.3991,39.8932 26.588,39.8964 26.777,39.8976 " />
<polygon fill="rgb(196,233,255)" stroke="rgb(166,214,242)" stroke-width="0.35" points="159.091,21 159.09,20.811 159.087,20.6221 159.082,20.4332 159.075,20.2443 159.067,20.0555 159.057,19.8668 159.044,19.6782 159.03,19.4898 159.014,19.3015 158.996,19.1134 158.976,18.9254 158.955,18.7377 158.931,18.5502 158.906,18.363 158.878,18.176 158.849,17.9893 158.818,17.8029 158.785,17.6168 158.75,17.431 158.714,17.2456 158.675,17.0606 158.635,16.876 158.593,16.6918 158.549,16.508 158.503,16.3246 158.455,16.1418 158.406,15.9594 158.355,15.7775 158.301,15.5962 158.247,15.4154 158.19,15.2351 158.131,15.0554 158.071,14.8764 158.009,14.6979 157.945,14.52 157.879,14.3428 157.812,14.1663 157.742,13.9905 157.672,13.8153 157.599,13.6409 157.524,13.4672 157.448,13.2943 157.37,13.1221 157.291,12.9508 157.209,12.7802 157.126,12.6104 157.041,12.4415 156.955,12.2735 156.867,12.1063 156.777,11.94 156.686,11.7746 156.593,11.6101 156.498,11.4466 156.402,11.284 156.304,11.1224 156.204,10.9618 156.103,10.8022 156,10.6436 155.896,10.4861 155.79,10.3296 155.682,10.1742 155.573,10.0198 155.463,9.86656 155.351,9.71442 155.237,9.56341 155.122,9.41354 155.005,9.26483 154.887,9.1173 154.768,8.97095 154.647,8.82581 154.524,8.68188 154.4,8.53919 154.275,8.39774 154.148,8.25755 154.02,8.11864 153.891,7.98101 153.76,7.84469 153.627,7.70968 153.494,7.576 153.359,7.44366 153.223,7.31268 153.085,7.18307 152.946,7.05484 152.806,6.928 152.665,6.80258 152.522,6.67857 152.379,6.55599 152.234,6.43486 152.087,6.31518 151.94,6.19697 151.791,6.08024 151.641,5.96501 151.491,5.85128 151.339,5.73906 151.185,5.62837 151.031,5.51921 150.876,5.41161 150.719,5.30556 150.562,5.20108 150.403,5.09819 150.244,4.99688 150.083,4.89717 149.922,4.79907 149.759,4.7026 149.596,4.60775 149.431,4.51454 149.266,4.42298 149.1,4.33308 148.933,4.24485 148.765,4.15829 148.596,4.07341 148.426,3.99023 148.256,3.90875 148.084,3.82897 147.912,3.75092 147.739,3.67459 147.566,3.59999 147.391,3.52713 147.216,3.45602 147.041,3.38666 146.864,3.31907 146.687,3.25324 146.509,3.18919 146.331,3.12692 146.152,3.06643 145.972,3.00774 145.792,2.95085 145.611,2.89576 145.43,2.84249 145.248,2.79103 145.066,2.74139 144.883,2.69357 144.7,2.64759 144.516,2.60344 144.332,2.56113 144.147,2.52067 143.962,2.48205 143.777,2.44529 143.591,2.41038 143.405,2.37733 143.219,2.34614 143.032,2.31682 142.845,2.28936 142.658,2.26378 142.47,2.24007 142.282,2.21824 142.094,2.19828 141.906,2.1802 141.718,2.16401 141.53,2.1497 141.341,2.13728 141.152,2.12674 140.964,2.11809 140.775,2.11132 140.586,2.10645 140.397,2.10346 140.208,2.10237 140.019,2.10316 139.83,2.10585 139.641,2.11042 139.452,2.11688 139.263,2.12523 139.075,2.13547 138.886,2.1476 138.698,2.16161 138.509,2.1775 138.321,2.19528 138.133,2.21493 137.946,2.23647 137.758,2.25988 137.571,2.28516 137.384,2.31232 137.197,2.34134 137.011,2.37224 136.824,2.40499 136.639,2.4396 136.453,2.47607 136.268,2.51439 136.084,2.55457 135.899,2.59658 135.716,2.64044 135.532,2.68613 135.349,2.73365 135.167,2.783 134.985,2.83417 134.804,2.88716 134.623,2.94196 134.442,2.99856 134.263,3.05696 134.084,3.11716 133.905,3.17915 133.727,3.24292 133.55,3.30847 133.373,3.37578 133.197,3.44486 133.022,3.51569 132.848,3.58827 132.674,3.66259 132.501,3.73865 132.329,3.81643 132.157,3.89593 131.987,3.97714 131.817,4.06005 131.648,4.14466 131.48,4.23095 131.312,4.31892 131.146,4.40855 130.981,4.49985 130.816,4.5928 130.653,4.68738 130.49,4.7836 130.328,4.88144 130.167,4.98089 130.008,5.08194 129.849,5.18459 129.692,5.28882 129.535,5.39461 129.379,5.50197 129.225,5.61088 129.072,5.72133 128.919,5.8333 128.768,5.94679 128.618,6.06179 128.47,6.17828 128.322,6.29625 128.175,6.4157 128.03,6.5366 127.886,6.65895 127.743,6.78273 127.602,6.90793 127.462,7.03455 127.323,7.16256 127.185,7.29195 127.048,7.42271 126.913,7.55483 126.78,7.6883 126.647,7.8231 126.516,7.95921 126.386,8.09663 126.258,8.23534 126.131,8.37533 126.005,8.51658 125.881,8.65907 125.759,8.8028 125.637,8.94775 125.518,9.09391 125.399,9.24126 125.282,9.38978 125.167,9.53946 125.053,9.69029 124.941,9.84225 124.83,9.99533 124.721,10.1495 124.613,10.3048 124.507,10.4611 124.402,10.6185 124.299,10.7769 124.198,10.9363 124.098,11.0968 124,11.2582 123.903,11.4207 123.808,11.584 123.715,11.7483 123.623,11.9136 123.533,12.0797 123.445,12.2468 123.358,12.4147 123.273,12.5835 123.19,12.7531 123.108,12.9235 123.028,13.0948 122.95,13.2668 122.874,13.4396 122.799,13.6132 122.726,13.7875 122.655,13.9625 122.585,14.1383 122.517,14.3147 122.451,14.4918 122.387,14.6695 122.325,14.8479 122.264,15.0269 122.205,15.2065 122.148,15.3866 122.093,15.5673 122.04,15.7486 121.988,15.9304 121.938,16.1127 121.89,16.2955 121.844,16.4788 121.8,16.6625 121.757,16.8466 121.717,17.0312 121.678,17.2161 121.641,17.4015 121.606,17.5872 121.573,17.7732 121.541,17.9596 121.512,18.1462 121.484,18.3332 121.459,18.5204 121.435,18.7078 121.413,18.8955 121.393,19.0834 121.374,19.2715 121.358,19.4598 121.344,19.6482 121.331,19.8368 121.32,20.0255 121.312,20.2142 121.305,20.4031 121.3,20.592 121.297,20.7809 121.295,20.9699 121.296,21.1589 121.298,21.3478 121.303,21.5368 121.309,21.7256 121.317,21.9144 121.327,22.1031 121.339,22.2917 121.353,22.4802 121.369,22.6685 121.387,22.8567 121.406,23.0446 121.428,23.2324 121.451,23.4199 121.476,23.6072 121.503,23.7943 121.532,23.981 121.563,24.1675 121.595,24.3536 121.63,24.5394 121.666,24.7249 121.704,24.91 121.744,25.0946 121.786,25.2789 121.83,25.4628 121.875,25.6462 121.923,25.8291 121.972,26.0116 122.023,26.1935 122.076,26.375 122.13,26.5559 122.187,26.7362 122.245,26.916 122.305,27.0952 122.367,27.2737 122.431,27.4517 122.496,27.629 122.563,27.8056 122.632,27.9816 122.703,28.1568 122.775,28.3314 122.85,28.5052 122.925,28.6782 123.003,28.8505 123.082,29.022 123.164,29.1927 123.246,29.3626 123.331,29.5316 123.417,29.6998 123.505,29.8672 123.594,30.0336 123.685,30.1991 123.778,30.3637 123.873,30.5274 123.969,30.6901 124.066,30.8519 124.166,31.0127 124.267,31.1724 124.369,31.3312 124.473,31.4889 124.579,31.6456 124.686,31.8012 124.795,31.9557 124.905,32.1091 125.017,32.2614 125.131,32.4126 125.245,32.5627 125.362,32.7116 125.48,32.8593 125.599,33.0058 125.72,33.1512 125.842,33.2953 125.966,33.4382 126.091,33.5798 126.217,33.7202 126.345,33.8593 126.475,33.9972 126.605,34.1337 126.737,34.2689 126.871,34.4028 127.005,34.5353 127.141,34.6665 127.279,34.7964 127.417,34.9248 127.557,35.0519 127.698,35.1775 127.841,35.3018 127.984,35.4246 128.129,35.5459 128.275,35.6659 128.422,35.7843 128.571,35.9013 128.72,36.0167 128.871,36.1307 129.023,36.2432 129.176,36.3541 129.33,36.4635 129.485,36.5714 129.642,36.6777 129.799,36.7824 129.957,36.8855 130.117,36.9871 130.277,37.0871 130.438,37.1854 130.601,37.2821 130.764,37.3773 130.928,37.4707 131.093,37.5625 131.259,37.6527 131.426,37.7412 131.594,37.828 131.763,37.9132 131.932,37.9966 132.103,38.0784 132.274,38.1584 132.446,38.2368 132.619,38.3134 132.792,38.3882 132.967,38.4614 133.141,38.5328 133.317,38.6024 133.494,38.6703 133.671,38.7364 133.848,38.8007 134.027,38.8633 134.206,38.9241 134.385,38.983 134.565,39.0402 134.746,39.0956 134.927,39.1491 135.109,39.2009 135.291,39.2508 135.474,39.2989 135.657,39.3452 135.841,39.3897 136.025,39.4323 136.209,39.473 136.394,39.5119 136.58,39.549 136.765,39.5842 136.951,39.6175 137.138,39.649 137.324,39.6786 137.511,39.7064 137.698,39.7323 137.886,39.7563 138.073,39.7784 138.261,39.7987 138.449,39.817 138.638,39.8335 138.826,39.8481 139.015,39.8609 139.203,39.8717 139.392,39.8807 139.581,39.8877 139.77,39.8929 139.959,39.8962 140.148,39.8976 140.337,39.8971 140.526,39.8947 140.715,39.8904 140.904,39.8843 141.092,39.8762 141.281,39.8663 141.47,39.8545 141.658,39.8408 141.846,39.8252 142.035,39.8077 142.223,39.7883 142.41,39.7671 142.598,39.744 142.785,39.719 142.972,39.6921 143.159,39.6634 143.346,39.6328 143.532,39.6004 143.718,39.566 143.903,39.5299 144.088,39.4918 144.273,39.452 144.457,39.4102 144.641,39.3667 144.825,39.3213 145.007,39.274 145.19,39.225 145.372,39.1741 145.553,39.1214 145.734,39.0669 145.915,39.0106 146.095,38.9525 146.274,38.8925 146.452,38.8308 146.63,38.7674 146.808,38.7021 146.984,38.6351 147.16,38.5663 147.336,38.4957 147.51,38.4234 147.684,38.3494 147.857,38.2736 148.03,38.1961 148.201,38.1168 148.372,38.0359 148.542,37.9533 148.711,37.8689 148.879,37.7829 149.047,37.6952 149.213,37.6058 149.379,37.5148 149.544,37.4221 149.707,37.3278 149.87,37.2318 150.032,37.1343 150.193,37.0351 150.353,36.9343 150.511,36.8319 150.669,36.7279 150.826,36.6223 150.982,36.5152 151.136,36.4066 151.29,36.2964 151.442,36.1846 151.594,36.0714 151.744,35.9566 151.893,35.8404 152.04,35.7226 152.187,35.6034 152.333,35.4828 152.477,35.3606 152.62,35.2371 152.761,35.1121 152.902,34.9857 153.041,34.8579 153.179,34.7288 153.316,34.5982 153.451,34.4663 153.585,34.333 153.718,34.1985 153.849,34.0626 153.979,33.9253 154.108,33.7868 154.235,33.6471 154.36,33.506 154.485,33.3637 154.608,33.2202 154.729,33.0754 154.849,32.9294 154.968,32.7823 155.085,32.634 155.201,32.4845 155.315,32.3338 155.427,32.182 155.538,32.0291 155.648,31.8751 155.756,31.72 155.862,31.5639 155.967,31.4067 156.07,31.2484 156.172,31.0891 156.272,30.9288 156.371,30.7675 156.467,30.6053 156.563,30.4421 156.656,30.2779 156.748,30.1128 156.839,29.9468 156.927,29.7799 157.014,29.6121 157.099,29.4435 157.183,29.274 157.265,29.1037 157.345,28.9325 157.424,28.7606 157.5,28.5879 157.575,28.4145 157.649,28.2403 157.72,28.0654 157.79,27.8898 157.858,27.7135 157.924,27.5365 157.989,27.3588 158.051,27.1806 158.112,27.0017 158.171,26.8222 158.229,26.6421 158.284,26.4615 158.338,26.2803 158.39,26.0986 158.44,25.9164 158.488,25.7337 158.535,25.5505 158.579,25.3668 158.622,25.1827 158.663,24.9983 158.702,24.8134 158.739,24.6281 158.774,24.4424 158.808,24.2565 158.839,24.0701 158.869,23.8835 158.897,23.6966 158.923,23.5095 158.947,23.322 158.97,23.1344 158.99,22.9465 159.009,22.7584 159.025,22.5702 159.04,22.3818 159.053,22.1933 159.064,22.0046 159.073,21.8158 159.08,21.627 159.085,21.4381 159.089,21.2492 159.09,21.0602 " />
</g>
</svg>
