<svg xmlns="http://www.w3.org/2000/svg" style="display:none" aria-hidden="true">
  <!-- Lumeri UI icon sprite · 24-grid · stroke 1.8 · round caps/joins · currentColor
       规范见 lumeri-design-manuals/针对性/05-界面UI.md {ui.icon}。
       香肠母题:凡有"条/块"处用 stadium(rx=半高),不用方角。 -->

  <!-- ═ 播放 playback ═ -->
  <symbol id="i-play" viewBox="0 0 24 24"><g fill="none" stroke="currentColor" stroke-width="1.8" stroke-linecap="round" stroke-linejoin="round"><path d="M9 5.8v12.4c0 .8.9 1.3 1.6.9l9.4-6.2c.6-.4.6-1.4 0-1.8L10.6 4.9c-.7-.4-1.6.1-1.6.9z"/></g></symbol>
  <symbol id="i-pause" viewBox="0 0 24 24"><g fill="none" stroke="currentColor" stroke-width="1.8" stroke-linecap="round" stroke-linejoin="round"><rect x="6.2" y="5" width="4" height="14" rx="2"/><rect x="13.8" y="5" width="4" height="14" rx="2"/></g></symbol>
  <symbol id="i-stop" viewBox="0 0 24 24"><g fill="none" stroke="currentColor" stroke-width="1.8" stroke-linecap="round" stroke-linejoin="round"><rect x="6.5" y="6.5" width="11" height="11" rx="3"/></g></symbol>
  <symbol id="i-skip-back" viewBox="0 0 24 24"><g fill="none" stroke="currentColor" stroke-width="1.8" stroke-linecap="round" stroke-linejoin="round"><path d="M18.5 6.6v10.8c0 .8-.9 1.3-1.6.9l-8-5.4c-.6-.4-.6-1.4 0-1.8l8-5.4c.7-.4 1.6.1 1.6.9z"/><path d="M5.5 5.5v13"/></g></symbol>
  <symbol id="i-skip-fwd" viewBox="0 0 24 24"><g fill="none" stroke="currentColor" stroke-width="1.8" stroke-linecap="round" stroke-linejoin="round"><path d="M5.5 6.6v10.8c0 .8.9 1.3 1.6.9l8-5.4c.6-.4.6-1.4 0-1.8l-8-5.4c-.7-.4-1.6.1-1.6.9z"/><path d="M18.5 5.5v13"/></g></symbol>
  <symbol id="i-loop" viewBox="0 0 24 24"><g fill="none" stroke="currentColor" stroke-width="1.8" stroke-linecap="round" stroke-linejoin="round"><path d="M17 3l3.5 3.5L17 10"/><path d="M3.5 11.5v-1a4 4 0 0 1 4-4h13"/><path d="M7 21l-3.5-3.5L7 14"/><path d="M20.5 12.5v1a4 4 0 0 1-4 4h-13"/></g></symbol>
  <symbol id="i-volume" viewBox="0 0 24 24"><g fill="none" stroke="currentColor" stroke-width="1.8" stroke-linecap="round" stroke-linejoin="round"><path d="M4 9.8v4.4c0 .6.4 1 1 1h2.3L11.4 19c.7.5 1.6 0 1.6-.8V5.8c0-.8-.9-1.3-1.6-.8L7.3 8.8H5c-.6 0-1 .4-1 1z"/><path d="M15.8 9.3a4.2 4.2 0 0 1 0 5.4"/><path d="M18.2 6.8a7.6 7.6 0 0 1 0 10.4"/></g></symbol>
  <symbol id="i-volume-x" viewBox="0 0 24 24"><g fill="none" stroke="currentColor" stroke-width="1.8" stroke-linecap="round" stroke-linejoin="round"><path d="M4 9.8v4.4c0 .6.4 1 1 1h2.3L11.4 19c.7.5 1.6 0 1.6-.8V5.8c0-.8-.9-1.3-1.6-.8L7.3 8.8H5c-.6 0-1 .4-1 1z"/><path d="M16 9.7l4.6 4.6M20.6 9.7L16 14.3"/></g></symbol>
  <symbol id="i-camera" viewBox="0 0 24 24"><g fill="none" stroke="currentColor" stroke-width="1.8" stroke-linecap="round" stroke-linejoin="round"><path d="M4 8.5c0-1.1.9-2 2-2h1.6l1.1-1.6c.3-.4.8-.7 1.2-.7h4.2c.5 0 1 .3 1.2.7l1.1 1.6H18c1.1 0 2 .9 2 2v8c0 1.1-.9 2-2 2H6c-1.1 0-2-.9-2-2z"/><circle cx="12" cy="12.3" r="3.2"/></g></symbol>

  <!-- ═ 输入 composer ═ -->
  <symbol id="i-plus" viewBox="0 0 24 24"><g fill="none" stroke="currentColor" stroke-width="1.8" stroke-linecap="round" stroke-linejoin="round"><path d="M12 5v14M5 12h14"/></g></symbol>
  <symbol id="i-send" viewBox="0 0 24 24"><g fill="none" stroke="currentColor" stroke-width="1.8" stroke-linecap="round" stroke-linejoin="round"><path d="M12 19V5M6 11l6-6 6 6"/></g></symbol>
  <symbol id="i-mic" viewBox="0 0 24 24"><g fill="none" stroke="currentColor" stroke-width="1.8" stroke-linecap="round" stroke-linejoin="round"><rect x="9" y="3" width="6" height="11" rx="3"/><path d="M5.5 11.5a6.5 6.5 0 0 0 13 0M12 18v3"/></g></symbol>
  <symbol id="i-attach" viewBox="0 0 24 24"><g fill="none" stroke="currentColor" stroke-width="1.8" stroke-linecap="round" stroke-linejoin="round"><path d="M21 8.5l-9.4 9.4a4 4 0 0 1-5.7-5.7l9-9a2.6 2.6 0 0 1 3.7 3.7l-9 9a1.3 1.3 0 0 1-1.8-1.8l8.3-8.3"/></g></symbol>
  <symbol id="i-slash" viewBox="0 0 24 24"><g fill="none" stroke="currentColor" stroke-width="1.8" stroke-linecap="round" stroke-linejoin="round"><path d="M15 5L9 19"/></g></symbol>
  <symbol id="i-close" viewBox="0 0 24 24"><g fill="none" stroke="currentColor" stroke-width="1.8" stroke-linecap="round" stroke-linejoin="round"><path d="M6.5 6.5l11 11M17.5 6.5l-11 11"/></g></symbol>

  <!-- ═ 导航 nav ═ -->
  <symbol id="i-chevron-r" viewBox="0 0 24 24"><g fill="none" stroke="currentColor" stroke-width="1.8" stroke-linecap="round" stroke-linejoin="round"><path d="M9.5 6l6 6-6 6"/></g></symbol>
  <symbol id="i-chevron-l" viewBox="0 0 24 24"><g fill="none" stroke="currentColor" stroke-width="1.8" stroke-linecap="round" stroke-linejoin="round"><path d="M14.5 6l-6 6 6 6"/></g></symbol>
  <symbol id="i-chevron-u" viewBox="0 0 24 24"><g fill="none" stroke="currentColor" stroke-width="1.8" stroke-linecap="round" stroke-linejoin="round"><path d="M6 14.5l6-6 6 6"/></g></symbol>
  <symbol id="i-chevron-d" viewBox="0 0 24 24"><g fill="none" stroke="currentColor" stroke-width="1.8" stroke-linecap="round" stroke-linejoin="round"><path d="M6 9.5l6 6 6-6"/></g></symbol>
  <symbol id="i-more" viewBox="0 0 24 24"><g fill="currentColor" stroke="none"><circle cx="12" cy="5.5" r="1.4"/><circle cx="12" cy="12" r="1.4"/><circle cx="12" cy="18.5" r="1.4"/></g></symbol>
  <symbol id="i-search" viewBox="0 0 24 24"><g fill="none" stroke="currentColor" stroke-width="1.8" stroke-linecap="round" stroke-linejoin="round"><circle cx="11" cy="11" r="6.5"/><path d="M15.8 15.8L21 21"/></g></symbol>
  <symbol id="i-sliders" viewBox="0 0 24 24"><g fill="none" stroke="currentColor" stroke-width="1.8" stroke-linecap="round" stroke-linejoin="round"><path d="M4 7h8m6 0h2M4 12h2m6 0h8M4 17h9m6 0h1"/><circle cx="14.5" cy="7" r="2.1"/><circle cx="8.5" cy="12" r="2.1"/><circle cx="15.5" cy="17" r="2.1"/></g></symbol>
  <symbol id="i-help" viewBox="0 0 24 24"><g fill="none" stroke="currentColor" stroke-width="1.8" stroke-linecap="round" stroke-linejoin="round"><circle cx="12" cy="12" r="8.5"/><path d="M9.6 9.4a2.5 2.5 0 1 1 3.6 2.3c-.7.4-1.2 1-1.2 1.8v.3"/></g><circle cx="12" cy="16.8" r="1" fill="currentColor" stroke="none"/></symbol>
  <symbol id="i-clock" viewBox="0 0 24 24"><g fill="none" stroke="currentColor" stroke-width="1.8" stroke-linecap="round" stroke-linejoin="round"><circle cx="12" cy="12" r="8.5"/><path d="M12 7.5V12l3 2"/></g></symbol>
  <symbol id="i-user" viewBox="0 0 24 24"><g fill="none" stroke="currentColor" stroke-width="1.8" stroke-linecap="round" stroke-linejoin="round"><circle cx="12" cy="8" r="3.5"/><path d="M5.5 20a6.5 6.5 0 0 1 13 0"/></g></symbol>
  <symbol id="i-logout" viewBox="0 0 24 24"><g fill="none" stroke="currentColor" stroke-width="1.8" stroke-linecap="round" stroke-linejoin="round"><path d="M9.5 20.5H6a2 2 0 0 1-2-2v-13a2 2 0 0 1 2-2h3.5"/><path d="M15.5 16l4-4-4-4M19.5 12H9.5"/></g></symbol>
  <symbol id="i-keyboard" viewBox="0 0 24 24"><g fill="none" stroke="currentColor" stroke-width="1.8" stroke-linecap="round" stroke-linejoin="round"><rect x="3" y="7" width="18" height="11" rx="2.5"/><path d="M6.6 10.7h6.6M16.8 10.7h.01M8 14.6h8"/></g></symbol>
  <symbol id="i-new-chat" viewBox="0 0 24 24"><g fill="none" stroke="currentColor" stroke-width="1.8" stroke-linecap="round" stroke-linejoin="round"><path d="M20.5 10.2V7a2.6 2.6 0 0 0-2.6-2.6H6.1A2.6 2.6 0 0 0 3.5 7v13.3l3.9-3.3h4.8"/><path d="M18.3 13.9v6.2M15.2 17h6.2"/></g></symbol>
  <symbol id="i-file" viewBox="0 0 24 24"><g fill="none" stroke="currentColor" stroke-width="1.8" stroke-linecap="round" stroke-linejoin="round"><path d="M6 4.5A1.5 1.5 0 0 1 7.5 3h6L18 7.5V19a1.5 1.5 0 0 1-1.5 1.5h-9A1.5 1.5 0 0 1 6 19z"/><path d="M13.5 3v4.5H18"/></g></symbol>

  <!-- ═ 编辑 edit ═ -->
  <symbol id="i-split" viewBox="0 0 24 24"><g fill="none" stroke="currentColor" stroke-width="1.8" stroke-linecap="round" stroke-linejoin="round"><circle cx="6" cy="6.2" r="2.6"/><circle cx="6" cy="17.8" r="2.6"/><path d="M8.2 7.7L20 19.2M8.2 16.3L20 4.8M13.5 13.5l1.6 1.5"/></g></symbol>
  <symbol id="i-trash" viewBox="0 0 24 24"><g fill="none" stroke="currentColor" stroke-width="1.8" stroke-linecap="round" stroke-linejoin="round"><path d="M4.5 7h15M9.5 7V5.4c0-.8.6-1.4 1.4-1.4h2.2c.8 0 1.4.6 1.4 1.4V7M6.8 7l.9 11.3c.1 1 .9 1.7 1.9 1.7h4.8c1 0 1.8-.7 1.9-1.7L17.2 7"/><path d="M10 11v5.5M14 11v5.5"/></g></symbol>
  <symbol id="i-undo" viewBox="0 0 24 24"><g fill="none" stroke="currentColor" stroke-width="1.8" stroke-linecap="round" stroke-linejoin="round"><path d="M8.5 14.5L4 10l4.5-4.5"/><path d="M4 10h10.5a5.5 5.5 0 0 1 0 11H11"/></g></symbol>
  <symbol id="i-redo" viewBox="0 0 24 24"><g fill="none" stroke="currentColor" stroke-width="1.8" stroke-linecap="round" stroke-linejoin="round"><path d="M15.5 14.5L20 10l-4.5-4.5"/><path d="M20 10H9.5a5.5 5.5 0 0 0 0 11H13"/></g></symbol>
  <symbol id="i-marker" viewBox="0 0 24 24"><g fill="none" stroke="currentColor" stroke-width="1.8" stroke-linecap="round" stroke-linejoin="round"><path d="M6 21V4.5"/><path d="M6 5.2c2-1.3 4-1.3 6 0s4 1.3 6 0v8c-2 1.3-4 1.3-6 0s-4-1.3-6 0"/></g></symbol>
  <symbol id="i-magnet" viewBox="0 0 24 24"><g fill="none" stroke="currentColor" stroke-width="1.8" stroke-linecap="round" stroke-linejoin="round"><path d="M6.5 3.5h4v7.5a1.5 1.5 0 0 0 3 0V3.5h4v7.5a5.5 5.5 0 0 1-11 0z"/><path d="M6.5 7.2h4M13.5 7.2h4"/></g></symbol>
  <symbol id="i-zoom-in" viewBox="0 0 24 24"><g fill="none" stroke="currentColor" stroke-width="1.8" stroke-linecap="round" stroke-linejoin="round"><circle cx="11" cy="11" r="6.5"/><path d="M15.8 15.8L21 21M11 8.5v5M8.5 11h5"/></g></symbol>
  <symbol id="i-zoom-out" viewBox="0 0 24 24"><g fill="none" stroke="currentColor" stroke-width="1.8" stroke-linecap="round" stroke-linejoin="round"><circle cx="11" cy="11" r="6.5"/><path d="M15.8 15.8L21 21M8.5 11h5"/></g></symbol>
  <symbol id="i-crop" viewBox="0 0 24 24"><g fill="none" stroke="currentColor" stroke-width="1.8" stroke-linecap="round" stroke-linejoin="round"><path d="M7 2.5v14a1.5 1.5 0 0 0 1.5 1.5h13"/><path d="M2.5 7h14A1.5 1.5 0 0 1 18 8.5v13"/></g></symbol>
  <symbol id="i-layers" viewBox="0 0 24 24"><g fill="none" stroke="currentColor" stroke-width="1.8" stroke-linecap="round" stroke-linejoin="round"><path d="M12 3.5l8.5 4.7L12 12.9 3.5 8.2z"/><path d="M4 12.5l8 4.4 8-4.4"/><path d="M4 16.5l8 4.4 8-4.4"/></g></symbol>
  <symbol id="i-speed" viewBox="0 0 24 24"><g fill="none" stroke="currentColor" stroke-width="1.8" stroke-linecap="round" stroke-linejoin="round"><path d="M4.5 15.5a8 8 0 1 1 15 0"/><path d="M12 15.5l3.6-4.4"/></g><circle cx="12" cy="15.5" r="1.3" fill="currentColor" stroke="none"/></symbol>
  <symbol id="i-grip" viewBox="0 0 24 24"><g fill="currentColor" stroke="none"><circle cx="9.2" cy="6" r="1.3"/><circle cx="14.8" cy="6" r="1.3"/><circle cx="9.2" cy="12" r="1.3"/><circle cx="14.8" cy="12" r="1.3"/><circle cx="9.2" cy="18" r="1.3"/><circle cx="14.8" cy="18" r="1.3"/></g></symbol>
  <symbol id="i-text" viewBox="0 0 24 24"><g fill="none" stroke="currentColor" stroke-width="1.8" stroke-linecap="round" stroke-linejoin="round"><path d="M5 7V4.5h14V7M12 4.5v15M9 19.5h6"/></g></symbol>
  <symbol id="i-droplet" viewBox="0 0 24 24"><g fill="none" stroke="currentColor" stroke-width="1.8" stroke-linecap="round" stroke-linejoin="round"><path d="M12 3.5s6 6.3 6 10.4a6 6 0 0 1-12 0C6 9.8 12 3.5 12 3.5z"/></g></symbol>
  <symbol id="i-transition" viewBox="0 0 24 24"><g fill="none" stroke="currentColor" stroke-width="1.8" stroke-linecap="round" stroke-linejoin="round"><rect x="3" y="6.5" width="8" height="11" rx="2"/><rect x="13" y="6.5" width="8" height="11" rx="2" stroke-dasharray="2.6 2.6"/></g></symbol>

  <!-- ═ 媒体 media ═ -->
  <symbol id="i-film" viewBox="0 0 24 24"><g fill="none" stroke="currentColor" stroke-width="1.8" stroke-linecap="round" stroke-linejoin="round"><rect x="3.5" y="4.5" width="17" height="15" rx="2.5"/><path d="M8.2 4.5v15M15.8 4.5v15M3.5 9.2h4.7M3.5 14.8h4.7M15.8 9.2h4.7M15.8 14.8h4.7"/></g></symbol>
  <symbol id="i-image" viewBox="0 0 24 24"><g fill="none" stroke="currentColor" stroke-width="1.8" stroke-linecap="round" stroke-linejoin="round"><rect x="4" y="5" width="16" height="14" rx="2.5"/><circle cx="9.2" cy="10" r="1.6"/><path d="M4.5 16.8l4.3-4.3 2.9 2.9 3.4-3.4 4.4 4.4"/></g></symbol>
  <symbol id="i-music" viewBox="0 0 24 24"><g fill="none" stroke="currentColor" stroke-width="1.8" stroke-linecap="round" stroke-linejoin="round"><path d="M9 18.3V6.5l10-2.2v11.5"/><circle cx="6.8" cy="18.3" r="2.3"/><circle cx="16.8" cy="15.8" r="2.3"/></g></symbol>
  <symbol id="i-captions" viewBox="0 0 24 24"><g fill="none" stroke="currentColor" stroke-width="1.8" stroke-linecap="round" stroke-linejoin="round"><rect x="3.5" y="5.5" width="17" height="13" rx="2.5"/><path d="M7 12.2h3.2M12.6 12.2H17M7 15.3h6M16.6 15.3h.01"/></g></symbol>
  <symbol id="i-waveform" viewBox="0 0 24 24"><g fill="none" stroke="currentColor" stroke-width="1.8" stroke-linecap="round" stroke-linejoin="round"><path d="M4 10v4M8 7v10M12 4.5v15M16 7v10M20 10v4"/></g></symbol>
  <symbol id="i-grid" viewBox="0 0 24 24"><g fill="none" stroke="currentColor" stroke-width="1.8" stroke-linecap="round" stroke-linejoin="round"><rect x="4" y="4" width="7" height="7" rx="2"/><rect x="13" y="4" width="7" height="7" rx="2"/><rect x="4" y="13" width="7" height="7" rx="2"/><rect x="13" y="13" width="7" height="7" rx="2"/></g></symbol>
  <symbol id="i-folder" viewBox="0 0 24 24"><g fill="none" stroke="currentColor" stroke-width="1.8" stroke-linecap="round" stroke-linejoin="round"><path d="M3.5 6.5c0-1.1.9-2 2-2h3.6c.5 0 .9.2 1.2.6l1.4 1.9H18.5c1.1 0 2 .9 2 2v8.5c0 1.1-.9 2-2 2h-13c-1.1 0-2-.9-2-2z"/></g></symbol>
  <symbol id="i-export" viewBox="0 0 24 24"><g fill="none" stroke="currentColor" stroke-width="1.8" stroke-linecap="round" stroke-linejoin="round"><path d="M12 14V3.5M8.5 7L12 3.5 15.5 7"/><path d="M6.5 11H5.5A1.5 1.5 0 0 0 4 12.5V19a1.5 1.5 0 0 0 1.5 1.5h13A1.5 1.5 0 0 0 20 19v-6.5a1.5 1.5 0 0 0-1.5-1.5h-1"/></g></symbol>
  <symbol id="i-download" viewBox="0 0 24 24"><g fill="none" stroke="currentColor" stroke-width="1.8" stroke-linecap="round" stroke-linejoin="round"><path d="M12 4v11M7 10.5l5 5 5-5M5 20h10.2M18.6 20h.01"/></g></symbol>
  <symbol id="i-upload" viewBox="0 0 24 24"><g fill="none" stroke="currentColor" stroke-width="1.8" stroke-linecap="round" stroke-linejoin="round"><path d="M12 15V4M7 8.5l5-5 5 5M5 20h10.2M18.6 20h.01"/></g></symbol>
  <symbol id="i-link" viewBox="0 0 24 24"><g fill="none" stroke="currentColor" stroke-width="1.8" stroke-linecap="round" stroke-linejoin="round"><path d="M10.2 13.8a4.1 4.1 0 0 0 5.8 0l3.2-3.2a4.1 4.1 0 1 0-5.8-5.8l-1.6 1.6"/><path d="M13.8 10.2a4.1 4.1 0 0 0-5.8 0l-3.2 3.2a4.1 4.1 0 1 0 5.8 5.8l1.6-1.6"/></g></symbol>
  <symbol id="i-copy" viewBox="0 0 24 24"><g fill="none" stroke="currentColor" stroke-width="1.8" stroke-linecap="round" stroke-linejoin="round"><rect x="9" y="9" width="11.5" height="11.5" rx="2"/><path d="M5.5 15H5a2 2 0 0 1-2-2V5a2 2 0 0 1 2-2h8a2 2 0 0 1 2 2v.5"/></g></symbol>

  <!-- ═ AI 与状态 status ═ -->
  <symbol id="i-wand" viewBox="0 0 24 24"><g fill="none" stroke="currentColor" stroke-width="1.8" stroke-linecap="round" stroke-linejoin="round"><path d="M3.5 20.5L15.5 8.5"/><path d="M17.5 2.8v3.4M15.8 4.5h3.4"/><path d="M20.2 8.8v2.4M19 10h2.4"/><path d="M12.2 3.2v2.4M11 4.4h2.4"/></g></symbol>
  <symbol id="i-spark" viewBox="0 0 24 24"><g fill="none" stroke="currentColor" stroke-width="1.8" stroke-linecap="round" stroke-linejoin="round"><path d="M12 3.5c.6 3.8 2.7 5.9 6.5 6.5-3.8.6-5.9 2.7-6.5 6.5-.6-3.8-2.7-5.9-6.5-6.5 3.8-.6 5.9-2.7 6.5-6.5z"/><path d="M18.5 15.5c.3 1.7 1.3 2.7 3 3-1.7.3-2.7 1.3-3 3-.3-1.7-1.3-2.7-3-3 1.7-.3 2.7-1.3 3-3z"/></g></symbol>
  <symbol id="i-check" viewBox="0 0 24 24"><g fill="none" stroke="currentColor" stroke-width="1.8" stroke-linecap="round" stroke-linejoin="round"><path d="M5 12.5l4.5 4.5L19 7.5"/></g></symbol>
  <symbol id="i-check-circle" viewBox="0 0 24 24"><g fill="none" stroke="currentColor" stroke-width="1.8" stroke-linecap="round" stroke-linejoin="round"><circle cx="12" cy="12" r="8.5"/><path d="M8.4 12.4l2.5 2.5 4.9-5.4"/></g></symbol>
  <symbol id="i-x-circle" viewBox="0 0 24 24"><g fill="none" stroke="currentColor" stroke-width="1.8" stroke-linecap="round" stroke-linejoin="round"><circle cx="12" cy="12" r="8.5"/><path d="M9.4 9.4l5.2 5.2M14.6 9.4l-5.2 5.2"/></g></symbol>
  <symbol id="i-warning" viewBox="0 0 24 24"><g fill="none" stroke="currentColor" stroke-width="1.8" stroke-linecap="round" stroke-linejoin="round"><path d="M10.7 4.9L3.4 17.6c-.6 1 .2 2.3 1.3 2.3h14.6c1.2 0 1.9-1.3 1.3-2.3L13.3 4.9c-.6-1-2-1-2.6 0z"/><path d="M12 9.5v4"/></g><circle cx="12" cy="16.6" r="1" fill="currentColor" stroke="none"/></symbol>
  <symbol id="i-info" viewBox="0 0 24 24"><g fill="none" stroke="currentColor" stroke-width="1.8" stroke-linecap="round" stroke-linejoin="round"><circle cx="12" cy="12" r="8.5"/><path d="M12 11.2v5"/></g><circle cx="12" cy="8" r="1" fill="currentColor" stroke="none"/></symbol>
  <symbol id="i-refresh" viewBox="0 0 24 24"><g fill="none" stroke="currentColor" stroke-width="1.8" stroke-linecap="round" stroke-linejoin="round"><path d="M20.5 12a8.5 8.5 0 1 1-2.5-6L20.5 8"/><path d="M20.5 3.5V8H16"/></g></symbol>
  <symbol id="i-eye" viewBox="0 0 24 24"><g fill="none" stroke="currentColor" stroke-width="1.8" stroke-linecap="round" stroke-linejoin="round"><path d="M2.8 12S6.5 5.8 12 5.8 21.2 12 21.2 12 17.5 18.2 12 18.2 2.8 12 2.8 12z"/><circle cx="12" cy="12" r="2.8"/></g></symbol>
  <symbol id="i-eye-off" viewBox="0 0 24 24"><g fill="none" stroke="currentColor" stroke-width="1.8" stroke-linecap="round" stroke-linejoin="round"><path d="M5.2 6.6C3.4 8.1 2.8 12 2.8 12s3.7 6.2 9.2 6.2c1.8 0 3.4-.7 4.7-1.6M9.5 6.2c.8-.25 1.6-.4 2.5-.4 5.5 0 9.2 6.2 9.2 6.2s-.8 1.3-2.2 2.7"/><path d="M9.9 9.9a2.8 2.8 0 0 0 4 4"/><path d="M4 4l16 16"/></g></symbol>
  <symbol id="i-lock" viewBox="0 0 24 24"><g fill="none" stroke="currentColor" stroke-width="1.8" stroke-linecap="round" stroke-linejoin="round"><rect x="5.5" y="10.8" width="13" height="9.2" rx="2.5"/><path d="M8.5 10.8V8a3.5 3.5 0 0 1 7 0v2.8"/></g></symbol>
  <symbol id="i-bookmark" viewBox="0 0 24 24"><g fill="none" stroke="currentColor" stroke-width="1.8" stroke-linecap="round" stroke-linejoin="round"><path d="M7 4.5h10a1 1 0 0 1 1 1v15l-6-4.2L6 20.5v-15a1 1 0 0 1 1-1z"/></g></symbol>
  <symbol id="i-expand" viewBox="0 0 24 24"><g fill="none" stroke="currentColor" stroke-width="1.8" stroke-linecap="round" stroke-linejoin="round"><path d="M8.5 3.5H5A1.5 1.5 0 0 0 3.5 5v3.5M15.5 3.5H19A1.5 1.5 0 0 1 20.5 5v3.5M8.5 20.5H5A1.5 1.5 0 0 1 3.5 19v-3.5M15.5 20.5H19a1.5 1.5 0 0 0 1.5-1.5v-3.5"/></g></symbol>
  <symbol id="i-collapse" viewBox="0 0 24 24"><g fill="none" stroke="currentColor" stroke-width="1.8" stroke-linecap="round" stroke-linejoin="round"><path d="M9 3.5V7A1.5 1.5 0 0 1 7.5 8.5H4M15 3.5V7a1.5 1.5 0 0 0 1.5 1.5H20M9 20.5V17a1.5 1.5 0 0 0-1.5-1.5H4M15 20.5V17a1.5 1.5 0 0 1 1.5-1.5H20"/></g></symbol>

  <!-- ═ 品牌 brand(显式冰蓝,不随 currentColor)═ -->
  <symbol id="i-list-check" viewBox="0 0 24 24"><g fill="none" stroke="currentColor" stroke-width="1.8" stroke-linecap="round" stroke-linejoin="round"><path d="M9 6h11M9 12h11M9 18h11M4 5.6l1 1 2-2M4 11.6l1 1 2-2M4 17.6l1 1 2-2"/></g></symbol><symbol id="i-shield" viewBox="0 0 24 24"><g fill="none" stroke="currentColor" stroke-width="1.8" stroke-linecap="round" stroke-linejoin="round"><path d="M12 3 5 6v5c0 4.5 3 8 7 9 4-1 7-4.5 7-9V6l-7-3z"/></g></symbol><symbol id="b-mark" viewBox="0 0 24 24"><rect x="3" y="6" width="12" height="5" rx="2.5" fill="#8BD8EA"/><circle cx="18.8" cy="8.5" r="2.6" fill="#ABE5F1"/><rect x="6.5" y="13" width="14.5" height="5" rx="2.5" fill="#5FC6DE"/></symbol>
  <symbol id="b-loading" viewBox="0 0 24 24"><g fill="currentColor"><rect x="3" y="9" width="5" height="6" rx="2.5" opacity=".35"/><rect x="9.5" y="9" width="5" height="6" rx="2.5" opacity=".65"/><rect x="16" y="9" width="5" height="6" rx="2.5"/></g></symbol>
  <symbol id="b-toggle-on" viewBox="0 0 24 24"><rect x="2" y="7" width="20" height="10" rx="5" fill="#5FC6DE"/><circle cx="17" cy="12" r="3.4" fill="#05171d"/></symbol>
  <symbol id="b-toggle-off" viewBox="0 0 24 24"><rect x="2" y="7" width="20" height="10" rx="5" fill="#262e39"/><circle cx="7" cy="12" r="3.4" fill="#8b96a4"/></symbol>
  <symbol id="b-progress" viewBox="0 0 24 24"><rect x="2" y="9.5" width="20" height="5" rx="2.5" fill="#262e39"/><rect x="2" y="9.5" width="13" height="5" rx="2.5" fill="#5FC6DE"/></symbol>
  <symbol id="b-dot" viewBox="0 0 24 24"><circle cx="12" cy="12" r="4.5" fill="currentColor"/></symbol>
</svg>
